<mxfile host="65bd71144e">
    <diagram id="TIdBPrcZQC-vxjIlggM5" name="Page-1">
        <mxGraphModel dx="1364" dy="1799" grid="1" gridSize="10" guides="1" tooltips="1" connect="1" arrows="1" fold="1" page="1" pageScale="1" pageWidth="850" pageHeight="1100" math="0" shadow="0">
            <root>
                <mxCell id="0"/>
                <mxCell id="1" parent="0"/>
                <mxCell id="6" style="edgeStyle=none;html=1;endArrow=none;endFill=0;entryX=0.359;entryY=-0.027;entryDx=0;entryDy=0;entryPerimeter=0;" parent="1" target="5" edge="1">
                    <mxGeometry relative="1" as="geometry">
                        <mxPoint x="140" y="130" as="sourcePoint"/>
                    </mxGeometry>
                </mxCell>
                <mxCell id="2" value="Member(&lt;u&gt;mid&lt;/u&gt;, first_name, last_name, pid)" style="rounded=0;whiteSpace=wrap;html=1;strokeColor=none;" parent="1" vertex="1">
                    <mxGeometry x="70" y="100" width="250" height="30" as="geometry"/>
                </mxCell>
                <mxCell id="3" value="School(&lt;u&gt;sid&lt;/u&gt;, name, city, state, country)" style="rounded=0;whiteSpace=wrap;html=1;strokeColor=none;" parent="1" vertex="1">
                    <mxGeometry x="70" y="230" width="220" height="30" as="geometry"/>
                </mxCell>
                <mxCell id="4" value="Major(&lt;u&gt;major_id&lt;/u&gt;, name)" style="rounded=0;whiteSpace=wrap;html=1;strokeColor=none;" parent="1" vertex="1">
                    <mxGeometry x="320" y="230" width="160" height="30" as="geometry"/>
                </mxCell>
                <mxCell id="7" style="edgeStyle=none;html=1;entryX=0.25;entryY=0;entryDx=0;entryDy=0;endArrow=none;endFill=0;exitX=0.448;exitY=1.013;exitDx=0;exitDy=0;exitPerimeter=0;" parent="1" source="5" target="3" edge="1">
                    <mxGeometry relative="1" as="geometry"/>
                </mxCell>
                <mxCell id="8" style="edgeStyle=none;html=1;endArrow=none;endFill=0;" parent="1" source="5" target="4" edge="1">
                    <mxGeometry relative="1" as="geometry"/>
                </mxCell>
                <mxCell id="5" value="graduates_at(&lt;u&gt;mid, sid, major_id&lt;/u&gt;,&amp;nbsp;degree, gpa)" style="rounded=0;whiteSpace=wrap;html=1;strokeColor=none;" parent="1" vertex="1">
                    <mxGeometry x="190" y="160" width="280" height="30" as="geometry"/>
                </mxCell>
                <mxCell id="12" style="edgeStyle=none;html=1;entryX=0.419;entryY=1.013;entryDx=0;entryDy=0;entryPerimeter=0;endArrow=none;endFill=0;" parent="1" source="9" target="10" edge="1">
                    <mxGeometry relative="1" as="geometry"/>
                </mxCell>
                <mxCell id="13" style="edgeStyle=none;html=1;entryX=0.286;entryY=1.013;entryDx=0;entryDy=0;entryPerimeter=0;endArrow=none;endFill=0;exitX=0.5;exitY=0;exitDx=0;exitDy=0;" parent="1" source="9" target="2" edge="1">
                    <mxGeometry relative="1" as="geometry"/>
                </mxCell>
                <mxCell id="14" style="edgeStyle=none;html=1;entryX=0.25;entryY=0;entryDx=0;entryDy=0;endArrow=none;endFill=0;" parent="1" source="9" target="3" edge="1">
                    <mxGeometry relative="1" as="geometry"/>
                </mxCell>
                <mxCell id="9" value="takes(&lt;u&gt;cid, mid, sid&lt;/u&gt;,&amp;nbsp;grade)" style="rounded=0;whiteSpace=wrap;html=1;strokeColor=none;" parent="1" vertex="1">
                    <mxGeometry x="-30" y="160" width="170" height="30" as="geometry"/>
                </mxCell>
                <mxCell id="10" value="Course(&lt;u&gt;cid&lt;/u&gt;, name, code)" style="rounded=0;whiteSpace=wrap;html=1;strokeColor=none;" parent="1" vertex="1">
                    <mxGeometry x="-120" y="100" width="160" height="30" as="geometry"/>
                </mxCell>
                <mxCell id="18" value="" style="edgeStyle=none;html=1;endArrow=none;endFill=0;exitX=0.317;exitY=1.093;exitDx=0;exitDy=0;exitPerimeter=0;entryX=0.575;entryY=0;entryDx=0;entryDy=0;entryPerimeter=0;" parent="1" source="15" target="16" edge="1">
                    <mxGeometry relative="1" as="geometry"/>
                </mxCell>
                <mxCell id="15" value="Employer(&lt;u&gt;eid&lt;/u&gt;, name, city, state, country)" style="rounded=0;whiteSpace=wrap;html=1;strokeColor=none;" parent="1" vertex="1">
                    <mxGeometry x="70" y="-20" width="220" height="30" as="geometry"/>
                </mxCell>
                <mxCell id="17" value="" style="edgeStyle=none;html=1;endArrow=none;endFill=0;entryX=0.35;entryY=-0.027;entryDx=0;entryDy=0;entryPerimeter=0;" parent="1" source="16" target="2" edge="1">
                    <mxGeometry relative="1" as="geometry"/>
                </mxCell>
                <mxCell id="16" value="works_at(&lt;u&gt;mid&lt;/u&gt;,&lt;u&gt;&amp;nbsp;eid&lt;/u&gt;,&amp;nbsp;from, to)" style="rounded=0;whiteSpace=wrap;html=1;strokeColor=none;" parent="1" vertex="1">
                    <mxGeometry x="70" y="40" width="220" height="30" as="geometry"/>
                </mxCell>
                <mxCell id="19" value="Member(&lt;u&gt;mid&lt;/u&gt;, first_name, last_name, pid)" style="rounded=0;whiteSpace=wrap;html=1;strokeColor=none;" vertex="1" parent="1">
                    <mxGeometry x="-70" y="440" width="250" height="30" as="geometry"/>
                </mxCell>
                <mxCell id="20" value="Project(&lt;u&gt;pid&lt;/u&gt;, name, repository)" style="rounded=0;whiteSpace=wrap;html=1;strokeColor=none;" vertex="1" parent="1">
                    <mxGeometry x="-70" y="320" width="220" height="30" as="geometry"/>
                </mxCell>
                <mxCell id="22" style="edgeStyle=none;html=1;entryX=0.376;entryY=1.093;entryDx=0;entryDy=0;entryPerimeter=0;endArrow=none;endFill=0;exitX=0.711;exitY=0;exitDx=0;exitDy=0;exitPerimeter=0;" edge="1" parent="1" source="21" target="20">
                    <mxGeometry relative="1" as="geometry"/>
                </mxCell>
                <mxCell id="23" value="" style="edgeStyle=none;html=1;endArrow=none;endFill=0;exitX=0.616;exitY=1.067;exitDx=0;exitDy=0;exitPerimeter=0;entryX=0.312;entryY=-0.133;entryDx=0;entryDy=0;entryPerimeter=0;" edge="1" parent="1" source="21" target="19">
                    <mxGeometry relative="1" as="geometry"/>
                </mxCell>
                <mxCell id="21" value="owns_project(&lt;u&gt;mid&lt;/u&gt;,&lt;u&gt;&amp;nbsp;pid)&lt;/u&gt;" style="rounded=0;whiteSpace=wrap;html=1;strokeColor=none;" vertex="1" parent="1">
                    <mxGeometry x="-70" y="380" width="220" height="30" as="geometry"/>
                </mxCell>
                <mxCell id="25" value="Personal_URL(&lt;u&gt;uid&lt;/u&gt;, url)" style="rounded=0;whiteSpace=wrap;html=1;strokeColor=none;" vertex="1" parent="1">
                    <mxGeometry x="-60" y="560" width="220" height="30" as="geometry"/>
                </mxCell>
                <mxCell id="27" value="" style="edgeStyle=none;html=1;endArrow=none;endFill=0;entryX=0.286;entryY=1.12;entryDx=0;entryDy=0;entryPerimeter=0;exitX=0.5;exitY=0;exitDx=0;exitDy=0;" edge="1" parent="1" source="26" target="19">
                    <mxGeometry relative="1" as="geometry"/>
                </mxCell>
                <mxCell id="29" value="" style="edgeStyle=none;html=1;endArrow=none;endFill=0;entryX=0.604;entryY=0.027;entryDx=0;entryDy=0;entryPerimeter=0;exitX=0.645;exitY=1.12;exitDx=0;exitDy=0;exitPerimeter=0;" edge="1" parent="1" source="26" target="25">
                    <mxGeometry relative="1" as="geometry"/>
                </mxCell>
                <mxCell id="26" value="has_url(&lt;u&gt;mid&lt;/u&gt;,&lt;u&gt;&amp;nbsp;uid)&lt;/u&gt;" style="rounded=0;whiteSpace=wrap;html=1;strokeColor=none;" vertex="1" parent="1">
                    <mxGeometry x="-70" y="500" width="220" height="30" as="geometry"/>
                </mxCell>
                <mxCell id="31" value="Member(&lt;u&gt;mid&lt;/u&gt;, first_name, last_name, pid)" style="rounded=0;whiteSpace=wrap;html=1;strokeColor=none;" vertex="1" parent="1">
                    <mxGeometry x="260" y="330" width="250" height="30" as="geometry"/>
                </mxCell>
                <mxCell id="33" value="" style="edgeStyle=none;html=1;endArrow=none;endFill=0;entryX=0.324;entryY=1.027;entryDx=0;entryDy=0;entryPerimeter=0;exitX=0.311;exitY=-0.133;exitDx=0;exitDy=0;exitPerimeter=0;" edge="1" parent="1" source="32" target="31">
                    <mxGeometry relative="1" as="geometry">
                        <mxPoint x="370" y="400" as="sourcePoint"/>
                    </mxGeometry>
                </mxCell>
                <mxCell id="35" value="" style="edgeStyle=none;html=1;endArrow=none;endFill=0;exitX=0.22;exitY=1.147;exitDx=0;exitDy=0;exitPerimeter=0;entryX=0.5;entryY=0;entryDx=0;entryDy=0;" edge="1" parent="1" source="32" target="34">
                    <mxGeometry relative="1" as="geometry">
                        <mxPoint x="340" y="460" as="targetPoint"/>
                    </mxGeometry>
                </mxCell>
                <mxCell id="32" value="Content(&lt;u&gt;cid&lt;/u&gt;,&lt;u&gt;&amp;nbsp;mid&lt;/u&gt;&lt;span style=&quot;font-size: 10px;&quot;&gt;,&lt;/span&gt;&amp;nbsp;created_date, text, short_video)" style="rounded=0;whiteSpace=wrap;html=1;strokeColor=none;" vertex="1" parent="1">
                    <mxGeometry x="260" y="400" width="280" height="30" as="geometry"/>
                </mxCell>
                <mxCell id="34" value="Photo(&lt;u&gt;pid&lt;/u&gt;, source)" style="rounded=0;whiteSpace=wrap;html=1;strokeColor=none;" vertex="1" parent="1">
                    <mxGeometry x="310" y="470" width="160" height="30" as="geometry"/>
                </mxCell>
                <mxCell id="39" value="" style="edgeStyle=none;html=1;endArrow=none;endFill=0;exitX=0.5;exitY=1;exitDx=0;exitDy=0;entryX=0.886;entryY=-0.053;entryDx=0;entryDy=0;entryPerimeter=0;" edge="1" parent="1" source="34" target="37">
                    <mxGeometry relative="1" as="geometry">
                        <mxPoint x="357.5999999999999" y="501.59000000000015" as="sourcePoint"/>
                    </mxGeometry>
                </mxCell>
                <mxCell id="37" value="Member(&lt;u&gt;mid&lt;/u&gt;, first_name, last_name, pid)" style="rounded=0;whiteSpace=wrap;html=1;strokeColor=none;" vertex="1" parent="1">
                    <mxGeometry x="260" y="540" width="260" height="30" as="geometry"/>
                </mxCell>
            </root>
        </mxGraphModel>
    </diagram>
</mxfile>